PathFileType	4	(X/Y/Z)	/Users/itak/Documents/Research/Walk-IL/dataset/trc/00298_00010.trc
DataRate	CameraRate	NumFrames	NumMarkers	Units	OrigDataRate	OrigDataStartFrame	OrigNumFrames
100.000000	100.000000	4	55	mm	100.000000	222	297
Frame#	Time	RPSI			LPSI			L3			STRN			T10			C7			CLAV			RBAK			LBAK			LSHO			LUPA			LAEL			LAOL			LWPS			LFRA			LIFD			LHPS			LHTS			RSHO			RUPA			RAEL			RAOL			RWTS			RWPS			RFRA			RIFD			RHTS			RHPS			RBHD			LFHD			RFHD			LBHD			RASI			LASI			LKNE			LTHI			LANK			LTIP			LTOE			LMT1			LMT5			LHEE			RKNE			RTHI			RANK			RTIP			RTOE			RMT1			RMT5			LWTS			RHEE			LHIP			RHIP			*53			*54			
		X1	Y1	Z1	X2	Y2	Z2	X3	Y3	Z3	X4	Y4	Z4	X5	Y5	Z5	X6	Y6	Z6	X7	Y7	Z7	X8	Y8	Z8	X9	Y9	Z9	X10	Y10	Z10	X11	Y11	Z11	X12	Y12	Z12	X13	Y13	Z13	X14	Y14	Z14	X15	Y15	Z15	X16	Y16	Z16	X17	Y17	Z17	X18	Y18	Z18	X19	Y19	Z19	X20	Y20	Z20	X21	Y21	Z21	X22	Y22	Z22	X23	Y23	Z23	X24	Y24	Z24	X25	Y25	Z25	X26	Y26	Z26	X27	Y27	Z27	X28	Y28	Z28	X29	Y29	Z29	X30	Y30	Z30	X31	Y31	Z31	X32	Y32	Z32	X33	Y33	Z33	X34	Y34	Z34	X35	Y35	Z35	X36	Y36	Z36	X37	Y37	Z37	X38	Y38	Z38	X39	Y39	Z39	X40	Y40	Z40	X41	Y41	Z41	X42	Y42	Z42	X43	Y43	Z43	X44	Y44	Z44	X45	Y45	Z45	X46	Y46	Z46	X47	Y47	Z47	X48	Y48	Z48	X49	Y49	Z49	X50	Y50	Z50	X51	Y51	Z51	X52	Y52	Z52	X53	Y53	Z53	X54	Y54	Z54	X55	Y55	Z55	

223	2.22	505.3807983398438	966.4279174804688	-133.4209442138672	331.0893249511719	970.704833984375	-159.4575805664062	399.8509826660156	1035.22265625	-157.728759765625	427.2789916992188	1223.009521484375	-399.7354431152344	377.82666015625	1148.589477539062	-144.0925598144531	351.9020385742188	1394.74462890625	-183.5348052978516	401.9142456054688	1320.41162109375	-337.2497253417969	421.3410034179688	1258.848022460938	-118.741943359375	249.0377197265625	1351.017700195312	-194.0041198730469	219.6560974121094	1358.021728515625	-295.2702331542969	145.7969512939453	1236.613403320312	-289.7258911132812	135.8286743164062	1035.727783203125	-316.6665649414062	184.4808959960938	1014.856750488281	-245.6887969970703	145.3861846923828	824.3323974609375	-416.3413391113281	136.1703643798828	938.585693359375	-352.2744445800781	220.1189270019531	677.1785278320312	-502.5885620117188	154.5362701416016	742.9984130859375	-448.1243896484375	198.9494476318359	764.481201171875	-492.7788696289062	523.0570678710938	1384.286987304688	-206.4913482666016	587.5097045898438	1331.59814453125	-178.895751953125	639.3206176757812	1073.912841796875	-125.3875885009766	546.7659912109375	1059.841918945312	-133.7084503173828	652.6550903320312	835.5397338867188	-203.1897125244141	700.5828247070312	848.0853271484375	-133.750244140625	666.1959838867188	1008.012817382812	-132.6331634521484	668.9094848632812	652.5527954101562	-174.4318084716797	687.650390625	720.9937133789062	-201.1333160400391	713.46875	734.3917236328125	-136.2799682617188	438.172607421875	1557.25830078125	-194.5265655517578	346.1876525878906	1598.8310546875	-382.1617431640625	437.7167358398438	1596.365112304688	-366.7356872558594	293.614013671875	1551.557373046875	-220.3504486083984	556.5150756835938	932.0589599609375	-350.0430908203125	305.2039794921875	929.7771606445312	-375.8611450195312	272.9573364257812	470.1818542480469	-234.7924041748047	253.3561859130859	611.5371704101562	-258.4851989746094	249.2550048828125	65.72982788085938	-23.59360885620117	250.9437255859375	262.6462097167969	-127.6980285644531	400.6875915527344	33.59849548339844	-171.5023803710938	397.3982543945312	36.55921173095703	-90.95827484130859	294.42822265625	40.46144104003906	-136.3130035400391	279.7131958007812	77.10312652587891	45.12955474853516	612.5885009765625	478.2032775878906	-395.4640808105469	630.2053833007812	726.1383666992188	-323.7103576660156	631.04248046875	36.40359497070312	-473.9917297363281	613.53125	365.2832641601562	-446.43359375	558.5413818359375	61.97757339477539	-659.5460815429688	525.1026611328125	47.02582168579102	-601.0736694335938	639.0172729492188	36.4485969543457	-579.3621215820312	211.6274108886719	849.07861328125	-437.1562805175781	585.1249389648438	29.87541198730469	-419.8667297363281	242.6396789550781	928.5433349609375	-241.8954620361328	617.440185546875	917.7216796875	-226.4697723388672	nan	nan	nan	nan	nan	nan	
224	2.23	509.7896118164062	968.0667114257812	-140.9501190185547	335.3458557128906	971.3399658203125	-166.6565246582031	404.5295104980469	1035.824462890625	-165.594970703125	430.6001892089844	1223.889526367188	-406.5523681640625	382.8172912597656	1148.822021484375	-150.9792938232422	356.8269348144531	1395.184692382812	-189.2572937011719	405.7215270996094	1321.2197265625	-343.7159118652344	426.8862915039062	1259.099609375	-125.3652038574219	253.8992004394531	1351.403076171875	-199.0799255371094	223.6427612304688	1358.576171875	-300.1066589355469	150.0220031738281	1236.953247070312	-294.0048522949219	139.9871826171875	1035.63427734375	-319.9933776855469	189.929931640625	1015.598693847656	-249.9398651123047	146.2265777587891	820.5919189453125	-412.4806518554688	139.0460357666016	937.1021118164062	-352.8726196289062	217.4108581542969	669.281982421875	-494.1744689941406	154.0607147216797	738.0440673828125	-440.9786071777344	197.6568756103516	757.0956420898438	-487.3121948242188	527.84619140625	1384.724487304688	-213.6467132568359	592.533203125	1331.712524414062	-186.9069976806641	645.8485717773438	1073.69580078125	-136.2661590576172	553.1983642578125	1059.575317382812	-143.0432434082031	659.2027587890625	836.1296997070312	-216.1692352294922	707.6719970703125	848.233642578125	-147.0476837158203	672.8431396484375	1007.980285644531	-144.2965698242188	676.8555297851562	652.993408203125	-189.5573272705078	694.9495239257812	721.8497314453125	-215.6136169433594	721.147216796875	734.7078857421875	-150.8864135742188	443.0396423339844	1557.869750976562	-200.3492889404297	349.6616516113281	1600.043334960938	-387.1315307617188	441.2898864746094	1597.5400390625	-372.4149475097656	298.31103515625	1552.2314453125	-225.0852966308594	560.2520751953125	933.0593872070312	-357.7811889648438	309.065185546875	930.0079956054688	-382.9493103027344	275.4723815917969	470.7338562011719	-239.8081970214844	256.5533752441406	611.8896484375	-264.059326171875	249.3511962890625	68.19979095458984	-24.84248924255371	252.3518371582031	264.3642272949219	-130.7228088378906	400.7174377441406	33.58404159545898	-171.7153472900391	397.5478210449219	37.37839508056641	-91.37152099609375	294.6315002441406	40.658203125	-136.8753814697266	279.7707214355469	80.77992248535156	43.75211334228516	615.018310546875	479.1895446777344	-402.38037109375	633.7960815429688	727.652099609375	-331.7049560546875	631.433349609375	36.44522857666016	-474.9468383789062	615.158447265625	365.4650268554688	-452.3664245605469	558.8165283203125	58.15734100341797	-661.1727905273438	525.4884643554688	44.75141143798828	-602.2738037109375	639.3572387695312	34.27265930175781	-580.2570190429688	212.3105621337891	843.69189453125	-435.3876953125	585.4409790039062	30.87058067321777	-420.7192687988281	246.8137817382812	928.5968017578125	-248.7142944335938	621.8906860351562	919.4638061523438	-234.5802917480469	nan	nan	nan	nan	nan	nan	
225	2.24	513.9257202148438	969.9519653320312	-148.4739990234375	339.4107971191406	972.134033203125	-173.9409332275391	408.9658813476562	1036.707153320312	-173.459228515625	433.9051513671875	1225.036376953125	-413.3775024414062	387.6624145507812	1149.31494140625	-157.8089904785156	361.7125244140625	1395.849731445312	-194.9944152832031	409.4977722167969	1322.259033203125	-350.1485595703125	432.3858337402344	1259.616088867188	-131.9514465332031	258.7276000976562	1352.032348632812	-204.2103118896484	227.6260223388672	1359.399047851562	-305.0046691894531	154.2643280029297	1237.57666015625	-298.4172668457031	144.4173889160156	1035.92626953125	-323.3860778808594	195.5991973876953	1016.632446289062	-254.3305053710938	147.1487731933594	817.373291015625	-408.196044921875	142.0371551513672	936.0814208984375	-353.37451171875	214.5800323486328	661.867431640625	-484.695556640625	153.5908660888672	733.7132568359375	-433.1325988769531	196.347412109375	750.0499877929688	-481.0853881835938	532.5746459960938	1385.424926757812	-220.7983856201172	597.4912719726562	1332.091186523438	-194.9505615234375	652.3717041015625	1073.768310546875	-147.3535461425781	559.649169921875	1059.523193359375	-152.6459350585938	665.6927490234375	837.066162109375	-229.4292907714844	714.7329711914062	848.7040405273438	-160.6483764648438	679.466064453125	1008.250915527344	-156.1929321289062	684.6780395507812	653.78515625	-204.9655914306641	702.1007080078125	723.0805053710938	-230.3683319091797	728.7670288085938	735.3442993164062	-165.8162078857422	447.8985595703125	1558.6552734375	-206.1648864746094	353.1664733886719	1601.4609375	-392.0843811035156	444.892822265625	1598.895141601562	-378.0751647949219	302.9942321777344	1553.132568359375	-229.8353576660156	564.0264892578125	934.468017578125	-365.4493103027344	312.9572143554688	930.3875732421875	-390.0532531738281	278.1122131347656	471.3662719726562	-245.1862640380859	259.8522033691406	612.3128051757812	-269.8970947265625	249.5275421142578	70.89810180664062	-26.25135231018066	253.8509826660156	266.2003479003906	-134.0617980957031	400.7625122070312	33.55981063842773	-171.9723663330078	397.7658996582031	38.27685546875	-91.85402679443359	294.8809814453125	40.87831497192383	-137.5044403076172	279.8945617675781	84.79345703125	42.15427780151367	617.6480102539062	480.4028625488281	-409.3304138183594	637.4305419921875	729.563720703125	-339.6150817871094	631.9326171875	36.46577453613281	-475.6795043945312	617.0119018554688	365.7812194824219	-458.1034545898438	559.50634765625	55.17657852172852	-662.5060424804688	526.1697387695312	43.27950286865234	-603.2669677734375	639.9884643554688	32.50674057006836	-580.8457641601562	213.0235748291016	838.62353515625	-433.2319030761719	585.786865234375	31.6871280670166	-421.3858032226562	250.9264373779297	928.744384765625	-255.6752166748047	626.3204956054688	921.55517578125	-242.6224670410156	nan	nan	nan	nan	nan	nan	
226	2.25	517.8365478515625	971.99267578125	-155.9723358154297	343.3088684082031	973.0699462890625	-181.2699584960938	413.1612243652344	1037.822265625	-181.247314453125	437.2099914550781	1226.4375	-420.1990661621094	392.3656616210938	1150.045654296875	-164.5590515136719	366.548095703125	1396.714721679688	-200.7400970458984	413.2415466308594	1323.51513671875	-356.5282592773438	437.8235473632812	1260.362182617188	-138.4937438964844	263.5099792480469	1352.888916015625	-209.4003295898438	231.617431640625	1360.477172851562	-309.964599609375	158.5066223144531	1238.484497070312	-302.9811401367188	149.0706939697266	1036.610717773438	-326.8079223632812	201.4588623046875	1017.97412109375	-258.7964172363281	148.1843872070312	814.7584838867188	-403.5521545410156	145.1548614501953	935.5827026367188	-353.781005859375	211.726806640625	655.1142578125	-474.1706848144531	153.1790924072266	730.1259155273438	-424.6747131347656	195.0862426757812	743.4881591796875	-474.1419372558594	537.2308349609375	1386.365844726562	-227.9193115234375	602.3761596679688	1332.718505859375	-202.9992828369141	658.8721923828125	1074.126953125	-158.6149749755859	566.0997314453125	1059.67431640625	-162.4798736572266	672.105712890625	838.3516845703125	-242.9626312255859	721.7552490234375	849.4948120117188	-174.5522918701172	686.0477294921875	1008.814331054688	-168.2940521240234	692.3612060546875	654.9241333007812	-220.6319885253906	709.0851440429688	724.6845703125	-245.3919830322266	736.32373046875	736.301025390625	-181.06640625	452.7339477539062	1559.585571289062	-211.9687652587891	356.6944885253906	1603.055908203125	-397.0221862792969	448.5151977539062	1600.401245117188	-383.712890625	307.6554565429688	1554.222900390625	-234.6013793945312	567.8383178710938	936.22607421875	-373.0496826171875	316.8753967285156	930.9295654296875	-397.136474609375	280.8397521972656	472.0509033203125	-250.9825439453125	263.1955871582031	612.7984619140625	-276.0106811523438	249.7811737060547	73.82570648193359	-27.84048461914062	255.3743133544922	268.1502380371094	-137.7639617919922	400.8215942382812	33.52670669555664	-172.2719421386719	398.0472106933594	39.24395370483398	-92.41782379150391	295.1810607910156	41.12271118164062	-138.2033233642578	280.0867309570312	89.15354156494141	40.30881500244141	620.4598999023438	481.7384948730469	-416.2168273925781	641.0934448242188	731.7533569335938	-347.4647827148438	632.5274658203125	36.43739700317383	-476.23046875	619.0517578125	366.1854248046875	-463.5726623535156	560.39501953125	52.95109939575195	-663.5499877929688	526.986572265625	42.47373580932617	-604.0299072265625	640.7403564453125	31.08259773254395	-581.1939697265625	213.7908630371094	833.9721069335938	-430.7150268554688	586.1932983398438	32.31083297729492	-421.875244140625	254.9778442382812	929.0021362304688	-262.7183532714844	630.7265014648438	923.8838500976562	-250.5975646972656	nan	nan	nan	nan	nan	nan	
